<svg width="17" height="17" viewBox="0 0 17 17" fill="none" xmlns="http://www.w3.org/2000/svg">
<path d="M5.96097 2.84031C7.01651 0.946771 7.54428 0 8.33333 0C9.12239 0 9.65016 0.946771 10.7057 2.84031L10.9788 3.33019C11.2787 3.86828 11.4287 4.13732 11.6625 4.31484C11.8964 4.49236 12.1876 4.55825 12.7701 4.69004L13.3004 4.81002C15.3501 5.2738 16.375 5.50568 16.6188 6.28978C16.8626 7.07387 16.164 7.89089 14.7666 9.52494L14.4051 9.94769C14.008 10.412 13.8094 10.6442 13.7201 10.9314C13.6308 11.2187 13.6608 11.5284 13.7208 12.148L13.7755 12.712C13.9868 14.8922 14.0924 15.9823 13.454 16.4668C12.8157 16.9514 11.8561 16.5096 9.93694 15.626L9.44043 15.3974C8.89506 15.1463 8.62238 15.0207 8.33333 15.0207C8.04429 15.0207 7.77161 15.1463 7.22624 15.3974L6.72973 15.626C4.81056 16.5096 3.85098 16.9514 3.21262 16.4668C2.57427 15.9823 2.6799 14.8922 2.89116 12.712L2.94582 12.148C3.00585 11.5284 3.03587 11.2187 2.94655 10.9314C2.85723 10.6442 2.65869 10.412 2.2616 9.94769L1.90008 9.52494C0.502707 7.89089 -0.19598 7.07387 0.0478508 6.28978C0.291681 5.50568 1.31655 5.2738 3.36628 4.81002L3.89657 4.69004C4.47904 4.55825 4.77028 4.49236 5.00412 4.31484C5.23796 4.13732 5.38794 3.86828 5.68789 3.3302L5.96097 2.84031Z" fill="#17C964"/>
</svg>
